<svg xmlns="http://www.w3.org/2000/svg" viewBox="0 0 32 32" fill="none">
  <!-- Minimalist geometric lowercase 'm' -->
  <path d="M0 11V23H3V15.5C3 12.8 4.8 11.2 7.5 11.2C10.2 11.2 11.5 12.8 11.5 15.5V23H14.5V15.5C14.5 12.8 16.3 11.2 19 11.2C21.7 11.2 23 12.8 23 15.5V23H26V13.8C26 9.8 23.2 7.2 19.5 7.2C17.2 7.2 15.5 8.5 14.5 10.5C13.5 8.5 11.8 7.2 8.5 7.2C4.8 7.2 2.2 9.8 1.5 13.8V11H0Z" fill="#FFFFFF" />
  <!-- Minimalist brand dot '.' (Silver/Muted) -->
  <circle cx="29.5" cy="21.5" r="2.2" fill="#A1A1AA" />
</svg>
